<?xml version="1.0" encoding="UTF-8"?>
<svg version="1.1" xmlns="http://www.w3.org/2000/svg" width="573" height="655">
<path d="M0 0 C1.24083347 1.00661993 2.47128849 2.02626598 3.6875 3.0625 C10.9138465 8.67635596 21.00696498 10.89008193 29.70703125 13.34765625 C30.46830322 13.56349365 31.2295752 13.77933105 32.01391602 14.00170898 C33.46524156 14.40625469 34.92008536 14.79845827 36.37866211 15.17602539 C40.73675537 16.36853847 43.67344941 17.94421516 47 21 C43.7 21.66 40.4 22.32 37 23 C39.44591298 27.89182597 41.1403699 27.96779105 46 30 C46.33 30.99 46.66 31.98 47 33 C43.29670513 34.23443162 39.84957519 34.15471168 35.9921875 34.17578125 C34.34764418 34.19903128 32.70311297 34.2231505 31.05859375 34.24804688 C28.48999547 34.28271835 25.92182781 34.31225067 23.35302734 34.32592773 C2.70914236 34.32594553 2.70914236 34.32594553 -16 42 C-18.04814904 46.09629808 -17.24636096 50.20294982 -15.9375 54.4375 C-11.94635148 62.6384901 -4.89723859 67.80361743 2.2421875 73.14453125 C6.59233838 76.41476596 10.79801504 79.85507887 15 83.3125 C15.71784668 83.89918457 16.43569336 84.48586914 17.17529297 85.09033203 C22.26691238 89.28801214 26.97617278 93.70128394 31.3125 98.6875 C31.82425781 99.26886719 32.33601562 99.85023437 32.86328125 100.44921875 C34 102 34 102 34 104 C34.66 104 35.32 104 36 104 C39 109.75 39 109.75 39 112 C39.66 112 40.32 112 41 112 C50.63511893 134.92625138 52.49735854 159.11936387 43.609375 182.6875 C42.18488894 185.86635311 40.64748165 188.93156542 39 192 C38.2884375 193.39412109 38.2884375 193.39412109 37.5625 194.81640625 C31.74281539 205.93390157 24.66518356 216.8673999 16 226 C15.34 226 14.68 226 14 226 C13.731875 226.639375 13.46375 227.27875 13.1875 227.9375 C12 230 12 230 9 231 C9 231.66 9 232.32 9 233 C7.64575195 234.29345703 7.64575195 234.29345703 5.73828125 235.7578125 C4.68821899 236.56641724 4.68821899 236.56641724 3.61694336 237.39135742 C2.85647705 237.96345947 2.09601074 238.53556152 1.3125 239.125 C0.53592041 239.71321533 -0.24065918 240.30143066 -1.04077148 240.9074707 C-7.46847075 245.71783097 -14.08773117 249.91547751 -21 254 C-23.90552356 255.77620428 -26.79730342 257.573994 -29.6875 259.375 C-30.73176147 260.01924927 -30.73176147 260.01924927 -31.79711914 260.67651367 C-34.41874108 262.30708628 -36.80894663 263.80894663 -39 266 C-39.34016462 268.8615057 -39.34016462 268.8615057 -39.34375 272.23046875 C-39.37178711 273.50156494 -39.39982422 274.77266113 -39.42871094 276.08227539 C-39.43994995 276.75340363 -39.45118896 277.42453186 -39.46276855 278.11599731 C-39.92402446 303.7795952 -42.8869611 324.3161461 -62 343 C-69.60285881 349.76393994 -77.66022512 354.91531149 -87 359 C-88.06992187 359.50144531 -89.13984375 360.00289063 -90.2421875 360.51953125 C-111.40585339 369.82871613 -134.24667055 371.0732828 -157.03198242 371.47680664 C-159.19476123 371.51673854 -161.3570371 371.5681472 -163.51953125 371.62109375 C-164.78901611 371.6461499 -166.05850098 371.67120605 -167.36645508 371.69702148 C-171.16581157 372.01382599 -174.4131622 372.71332178 -178 374 C-179.22772827 376.23259665 -179.22772827 376.23259665 -180 379 C-183.72452637 385.163726 -187.91638662 388.33431161 -194 392.0625 C-199.65709308 395.55685701 -204.03540989 398.62101559 -208 404 C-208.64324219 404.845625 -209.28648437 405.69125 -209.94921875 406.5625 C-210.52285156 407.366875 -211.09648437 408.17125 -211.6875 409 C-212.55955078 410.2065625 -212.55955078 410.2065625 -213.44921875 411.4375 C-215.12975905 414.21441295 -216.08385638 416.89504033 -217 420 C-205.99064145 416.85014226 -195.06893508 413.4629782 -184.17211914 409.94335938 C-178.05112991 407.96760639 -171.91767804 406.04157114 -165.76757812 404.15844727 C-162.08156031 403.025078 -158.39927612 401.88035553 -154.71789551 400.73204041 C-151.11215839 399.60739838 -147.50553444 398.48561297 -143.89892578 397.36376953 C-142.05290587 396.78893953 -140.20720106 396.2130966 -138.36181641 395.63623047 C-93.63397518 381.65927671 -93.63397518 381.65927671 -82.6875 386.4375 C-74.74181054 391.23489741 -69.97162135 399.34010107 -65.34765625 407.1171875 C-62.44711796 411.97516811 -59.34164406 416.69979584 -56.25 421.4375 C-55.69481689 422.28997314 -55.13963379 423.14244629 -54.56762695 424.02075195 C-54.03484131 424.83761475 -53.50205566 425.65447754 -52.953125 426.49609375 C-52.44604004 427.27355957 -51.93895508 428.05102539 -51.41650391 428.85205078 C-50.18740615 430.71582226 -48.9304453 432.55608689 -47.6640625 434.39453125 C-45.77631584 437.35022848 -45.15880796 439.50622485 -45 443 C-47 445 -47 445 -49.9375 445.0625 C-58.27199134 443.60091905 -66.04354138 436.69172712 -72 431 C-72 430.34 -72 429.68 -72 429 C-72.99 428.67 -73.98 428.34 -75 428 C-79 423.54285714 -79 423.54285714 -79 421 C-80.65 421.66 -82.3 422.32 -84 423 C-83.91621094 423.92683594 -83.83242188 424.85367187 -83.74609375 425.80859375 C-83.64425781 427.00613281 -83.54242188 428.20367187 -83.4375 429.4375 C-83.33308594 430.63246094 -83.22867187 431.82742188 -83.12109375 433.05859375 C-83.08113281 434.02925781 -83.04117187 434.99992187 -83 436 C-83.33 436.33 -83.66 436.66 -84 437 C-88.61052457 437 -90.47797652 436.51042295 -93.8125 433.25 C-96.64590648 428.81470032 -97.00438517 423.93614598 -97.54296875 418.79296875 C-97.74259417 415.86831513 -97.74259417 415.86831513 -100 414 C-107.99876919 413.02846365 -115.2342783 414.45422507 -122.8125 416.875 C-124.32299927 417.33604126 -124.32299927 417.33604126 -125.86401367 417.80639648 C-129.25001117 418.84889159 -132.62551149 419.92085121 -136 421 C-137.27341374 421.40551083 -138.54685187 421.81094504 -139.8203125 422.21630859 C-147.72937997 424.7382046 -155.62556709 427.29893417 -163.51904297 429.86914062 C-168.13218339 431.3678127 -172.75060293 432.84895348 -177.375 434.3125 C-178.11137695 434.54573975 -178.84775391 434.77897949 -179.60644531 435.01928711 C-185.44117302 436.85334091 -191.31308095 438.54833196 -197.19140625 440.23632812 C-201.97503015 441.63384277 -206.55874644 443.29157291 -211.1171875 445.30078125 C-213 446 -213 446 -216 446 C-216 446.66 -216 447.32 -216 448 C-229.05987031 455.11762932 -229.05987031 455.11762932 -236 455 C-238.54140976 454.22251327 -240.62521216 453.23686867 -243 452 C-243 451.34 -243 450.68 -243 450 C-243.99 449.67 -244.98 449.34 -246 449 C-248.93840657 444.46133445 -249.48072512 440.41188172 -249.375 435.125 C-249.36847412 434.41899658 -249.36194824 433.71299316 -249.35522461 432.9855957 C-249.21790959 427.65247758 -248.32960945 423.75240329 -246 419 C-245.67 418.01 -245.34 417.02 -245 416 C-244.34 416 -243.68 416 -243 416 C-242.91363281 415.39414062 -242.82726562 414.78828125 -242.73828125 414.1640625 C-241.19204858 404.94340897 -237.26364282 397.54284601 -232.015625 389.88671875 C-230.7996381 387.62778925 -230.39927708 385.52152153 -230 383 C-235.18452942 384.6921728 -240.35914994 386.41053372 -245.52392578 388.16210938 C-247.09623097 388.69416926 -248.66997396 389.22201355 -250.24560547 389.74414062 C-258.82032535 392.60435043 -266.14157913 395.84821099 -273.23632812 401.59326172 C-276.32734983 404.05871951 -279.49204774 406.42795809 -282.64233398 408.81689453 C-285.41833376 410.92295917 -288.18841788 413.03658144 -290.95703125 415.15234375 C-294.83668567 418.11466268 -298.72302558 421.06714341 -302.625 424 C-303.52476562 424.67933594 -304.42453125 425.35867188 -305.3515625 426.05859375 C-307.21381136 427.42369358 -309.10796575 428.74580124 -311.0234375 430.03515625 C-316.94572857 434.06884269 -320.63117518 437.17058108 -323 444 C-326.30672765 453.39806806 -332.49898506 460.07402507 -341.375 464.625 C-344.57210617 466.12028738 -346.46467565 467 -350 467 C-350.33 467.99 -350.66 468.98 -351 470 C-351.66 470 -352.32 470 -353 470 C-353.185625 470.66 -353.37125 471.32 -353.5625 472 C-355.32198888 475.67197679 -357.69983645 478.24951032 -360.44140625 481.23046875 C-362.07056716 482.92814506 -362.07056716 482.92814506 -363 485 C-363.66 485 -364.32 485 -365 485 C-365.268125 485.804375 -365.53625 486.60875 -365.8125 487.4375 C-366.204375 488.283125 -366.59625 489.12875 -367 490 C-367.99 490.33 -368.98 490.66 -370 491 C-370.67707661 492.66246488 -371.34122839 494.33019696 -372 496 C-373.62455488 498.26669313 -375.2623427 500.45044601 -377 502.625 C-380.62493987 507.21947196 -380.62493987 507.21947196 -384 512 C-384.66 512 -385.32 512 -386 512 C-386.99 514.475 -386.99 514.475 -388 517 C-388.66 517 -389.32 517 -390 517 C-390.309375 517.78375 -390.61875 518.5675 -390.9375 519.375 C-392 522 -392 522 -393 524 C-393.66 524 -394.32 524 -395 524 C-395.99 526.475 -395.99 526.475 -397 529 C-397.66 529 -398.32 529 -399 529 C-399.36738281 530.06347656 -399.36738281 530.06347656 -399.7421875 531.1484375 C-401.16970241 534.38472906 -402.96136085 536.82810061 -405.125 539.625 C-405.9380979 540.68834516 -406.75058544 541.75215728 -407.5625 542.81640625 C-407.97113281 543.3489502 -408.37976563 543.88149414 -408.80078125 544.43017578 C-418.20646798 556.69268154 -418.20646798 556.69268154 -426 570 C-426.66 570 -427.32 570 -428 570 C-428.25007813 570.69222656 -428.50015625 571.38445313 -428.7578125 572.09765625 C-430.18470885 575.43156817 -431.95482282 578.36159353 -433.875 581.4375 C-434.55304688 582.52933594 -435.23109375 583.62117187 -435.9296875 584.74609375 C-436.61289062 585.81988281 -437.29609375 586.89367187 -438 588 C-438.66773438 589.05574219 -439.33546875 590.11148438 -440.0234375 591.19921875 C-441.79860359 593.71462208 -443.38220398 595.44749663 -445.75 597.375 C-453.54773546 603.97419464 -462.37321208 611.74642417 -467 621 C-467.66 621 -468.32 621 -469 621 C-469.268125 621.886875 -469.53625 622.77375 -469.8125 623.6875 C-470.92933435 626.80288002 -472.22169073 629.22583754 -474 632 C-475.8059438 634.85941102 -477.26982743 637.61049708 -478.5 640.75 C-479.2425 642.35875 -479.2425 642.35875 -480 644 C-480.99 644.33 -481.98 644.66 -483 645 C-487.26069776 641.15162783 -487.84950494 639.010184 -488.2734375 633.34765625 C-488.77937954 618.24900139 -484.18349662 605.88485108 -474.625 594.0625 C-472.69056389 592.04487815 -472.69056389 592.04487815 -473 589 C-473.68707031 589.10699219 -474.37414062 589.21398437 -475.08203125 589.32421875 C-475.98308594 589.44410156 -476.88414062 589.56398438 -477.8125 589.6875 C-478.70582031 589.81511719 -479.59914063 589.94273437 -480.51953125 590.07421875 C-483 590 -483 590 -484.828125 588.65625 C-486 587 -486 587 -485.9375 584.8125 C-482.97375818 575.92127453 -478.71132318 569.9766642 -470.234375 565.55859375 C-464.16398715 562.89683992 -458.07849123 561.11570921 -451.59375 559.7734375 C-448.83331794 558.95029661 -447.23382157 557.7733408 -445 556 C-444.34 556 -443.68 556 -443 556 C-442.73703125 555.26265625 -442.4740625 554.5253125 -442.203125 553.765625 C-440.99580377 550.99035413 -439.66431172 549.07821695 -437.75 546.75 C-434.62942003 542.87370546 -431.89479125 538.87247365 -429.26171875 534.65234375 C-428.63716797 533.83443359 -428.63716797 533.83443359 -428 533 C-427.34 533 -426.68 533 -426 533 C-425.74605469 532.29230469 -425.49210937 531.58460938 -425.23046875 530.85546875 C-423.882188 527.72660135 -422.22699358 525.12970176 -420.3125 522.3125 C-419.60480469 521.26835938 -418.89710938 520.22421875 -418.16796875 519.1484375 C-415.6130484 515.43804866 -413.04372167 511.73866627 -410.4453125 508.05859375 C-409.27303102 506.38888472 -408.13166618 504.69749927 -407 503 C-406.34 503 -405.68 503 -405 503 C-404.88398438 502.42378906 -404.76796875 501.84757812 -404.6484375 501.25390625 C-403.94971541 498.82521561 -402.97837683 497.06599266 -401.625 494.9375 C-401.20476562 494.26589844 -400.78453125 493.59429687 -400.3515625 492.90234375 C-399 491 -399 491 -397.59399414 489.63500977 C-395.85527569 487.85155174 -394.53487619 486.00344993 -393.14453125 483.9375 C-392.60812012 483.14577393 -392.07170898 482.35404785 -391.51904297 481.53833008 C-390.95588379 480.70068115 -390.39272461 479.86303223 -389.8125 479 C-386.10588533 473.51439609 -382.37235202 468.09019569 -378.375 462.8125 C-374.77650643 457.9088924 -372.91860997 453.38635508 -371.33984375 447.56640625 C-368.73267971 438.20625993 -364.91974054 431.7700684 -357 426 C-354.42767857 424.61977826 -351.76385177 423.53829611 -349.0625 422.4375 C-340.0905827 418.50329554 -333.13011985 412.94858585 -325.79101562 406.546875 C-323.20680534 404.31492893 -320.54134531 402.19557625 -317.875 400.0625 C-314.90492667 397.64177858 -312.10476344 395.18791554 -309.4375 392.4375 C-308.633125 391.633125 -307.82875 390.82875 -307 390 C-306.34 390 -305.68 390 -305 390 C-304.34 388.68 -303.68 387.36 -303 386 C-302.34 386 -301.68 386 -301 386 C-300.73703125 385.41734375 -300.4740625 384.8346875 -300.203125 384.234375 C-298.94288449 381.89392833 -297.54380311 380.20540699 -295.75 378.25 C-293.27746041 375.47163267 -290.86025889 372.67541274 -288.5625 369.75 C-288.06878906 369.12609375 -287.57507813 368.5021875 -287.06640625 367.859375 C-285.66832525 365.77894164 -285.66832525 365.77894164 -286 362 C-287.11955078 361.70609375 -287.11955078 361.70609375 -288.26171875 361.40625 C-291.58623899 360.52678741 -294.90822538 359.63858223 -298.22900391 358.74511719 C-300.24650788 358.20261304 -302.26447456 357.66182876 -304.28271484 357.12207031 C-341.1370523 347.23984945 -341.1370523 347.23984945 -358 339 C-359.155 338.4534375 -360.31 337.906875 -361.5 337.34375 C-367.4989101 334.46612044 -373.1441516 331.5690177 -378.25390625 327.26171875 C-384.64871023 322.64086487 -392.01688693 323.45459914 -399.45898438 324.47363281 C-403.23914402 325.12388499 -406.99306259 325.85185374 -410.75 326.625 C-411.4149649 326.76104645 -412.07992981 326.8970929 -412.76504517 327.03726196 C-427.93844369 330.17070762 -440.39100938 335.13207033 -453.4831543 343.48120117 C-459.24600292 347.03889996 -459.24600292 347.03889996 -463.55859375 346.81640625 C-464.76708984 346.41228516 -464.76708984 346.41228516 -466 346 C-468.7574061 337.72778169 -466.69704041 329.92149615 -463.875 321.9453125 C-463.03322099 319.11182424 -462.82690168 316.93185272 -463 314 C-469.5382679 314.12278437 -472.68787339 317.91213496 -477.0625 322.25 C-477.75666016 322.91902344 -478.45082031 323.58804687 -479.16601562 324.27734375 C-482.8192956 327.80919466 -486.41716032 331.39684176 -490 335 C-491 336 -491 336 -493.375 336.25 C-496 336 -496 336 -497.75 334.6875 C-501.121224 330.13634761 -500.56131006 324.35960572 -500 319 C-496.58088876 303.58088876 -496.58088876 303.58088876 -494 301 C-493.95936168 299.33382885 -493.957279 297.66611905 -494 296 C-501.67774113 296.13237485 -507.14058106 298.81400395 -513.765625 302.40625 C-516.63910455 303.82216746 -518.83199248 304.68544606 -522 305 C-522.66 304.67 -523.32 304.34 -524 304 C-525.34530321 286.51105827 -513.58016325 270.78436393 -503 258 C-487.37663335 242.1953878 -466.95673167 232.70369771 -444.6875 232.5625 C-438.38193833 232.62987431 -432.64214869 233.47282657 -426.5703125 235.265625 C-423.05752278 236.2692792 -419.63015832 236.65094632 -416 237 C-416.16757812 236.31292969 -416.33515625 235.62585938 -416.5078125 234.91796875 C-416.81332031 233.56638672 -416.81332031 233.56638672 -417.125 232.1875 C-417.33382812 231.29417969 -417.54265625 230.40085938 -417.7578125 229.48046875 C-418 227 -418 227 -416 224 C-414.10545349 223.63491821 -414.10545349 223.63491821 -411.76342773 223.64697266 C-410.88244415 223.6430954 -410.00146057 223.63921814 -409.09378052 223.63522339 C-408.13341888 223.6447403 -407.17305725 223.6542572 -406.18359375 223.6640625 C-404.12995989 223.65560962 -402.07633006 223.64613004 -400.02270508 223.63574219 C-398.94598541 223.63489624 -397.86926575 223.63405029 -396.75991821 223.63317871 C-373.66433159 223.5763249 -351.32772737 222.9330913 -330 213 C-328.68243583 212.40723154 -327.36471676 211.81480732 -326.046875 211.22265625 C-318.95906794 207.99254222 -312.03556497 204.52106299 -305.1875 200.8125 C-271.33662517 182.60522884 -234.98926849 167.71951507 -196.5 163.75 C-195.72422607 163.66983643 -194.94845215 163.58967285 -194.14916992 163.50708008 C-151.55771544 159.62364872 -116.91749936 172.83486338 -82.0234375 195.73046875 C-75.91319789 199.56411329 -70.00993771 200.07620884 -62.890625 198.546875 C-61.62865894 198.18184349 -60.36694022 197.81595582 -59.10546875 197.44921875 C-54.14475256 196.39080992 -48.61399006 196.44992983 -43.65527344 197.4934082 C-29.39736442 200.21363266 -15.29438839 198.89219847 -3.0546875 191.1328125 C6.9232006 184.29463319 15.22946367 175.132414 18 163 C20.06207646 144.93402043 19.0189321 131.23488561 7.734375 116.328125 C3.02507013 110.48030687 -2.78203317 106.14531122 -9 102 C-9 101.34 -9 100.68 -9 100 C-9.598125 99.896875 -10.19625 99.79375 -10.8125 99.6875 C-13.36033404 98.88675216 -14.14908872 97.88693875 -16 96 C-17.27700244 95.02221152 -18.56966842 94.06463558 -19.875 93.125 C-28.40089723 86.79730832 -28.40089723 86.79730832 -30 82 C-30.59941406 81.70351562 -31.19882812 81.40703125 -31.81640625 81.1015625 C-41.29717769 76.31877619 -47.72318088 61.62040484 -51 52 C-56.22781022 36.11549971 -55.32454584 17.97273882 -47.75 2.875 C-44.21682562 -2.70654849 -39.65907484 -6.88802325 -33.5625 -9.4375 C-20.28522734 -11.53391147 -11.09852047 -7.19405482 0 0 Z " fill="#F9F9F9" transform="translate(524,10)"/>
</svg>
